<?xml version="1.0" encoding="utf-8"?>
<!-- Generator: Adobe Illustrator 22.1.0, SVG Export Plug-In . SVG Version: 6.00 Build 0)  -->
<svg version="1.1" id="Layer_1" xmlns="http://www.w3.org/2000/svg" xmlns:xlink="http://www.w3.org/1999/xlink" x="0px" y="0px"
	 viewBox="0 0 2000 1000" style="enable-background:new 0 0 2000 1000;" xml:space="preserve">
<style type="text/css">
	.st0{fill:#E2DFE6;}
	.st1{fill:#FBFCFC;}
	.st2{fill:#46484B;}
	.st3{fill:#679FCC;}
	.st4{fill:#F04B29;}
</style>
<g id="Car">
	<g>
		<g>
			<g>
				<path class="st0" d="M1429.1,368.9L1429.1,368.9c22.9,86.1,22.9,176.6,0,262.7l0,0c-7,26.3-84.9,44.6-112,44.6H696.3
					c-36.8,0-106-22.4-119.6-56.6l0,0c-30.6-76.6-30.6-162,0-238.6l0,0c13.7-34.2,82.8-56.6,119.6-56.6h620.8
					C1344.3,324.3,1422.2,342.6,1429.1,368.9z"/>
				<path class="st1" d="M1409.4,374.9L1409.4,374.9c21.8,82.1,21.8,168.5,0,250.7l0,0c-6.7,25.1-81,42.5-106.9,42.5H710.3
					c-35.1,0-101.1-21.4-114.1-54l0,0c-29.2-73.1-29.2-154.6,0-227.7l0,0c13-32.6,79-54,114.1-54h592.2
					C1328.4,332.4,1402.7,349.9,1409.4,374.9z"/>
				<path class="st0" d="M818.2,672.2l20.3,35.9c3.4,6.1,9.9,9.8,16.9,9.8l0,0c2.8,0,4.8-2.7,4.1-5.3l-11-40.4H818.2z"/>
				<path class="st0" d="M818.2,328.3l20.3-35.9c3.4-6.1,9.9-9.8,16.9-9.8l0,0c2.8,0,4.8,2.7,4.1,5.3l-11,40.4H818.2z"/>
			</g>
			<g>
				<path class="st2" d="M1060.6,656.5c1.1,0,2.2,0,3.3,0c86.7,0,173.3-5.4,173.3-5.4s-63.1-21.6-86.6-21.6h-84.9
					C1063.6,638.4,1061.9,647.5,1060.6,656.5z"/>
				<path class="st2" d="M1055.7,629.5h-79.1c-13.5,0-86,21.6-86,21.6s76.1,4.8,157.1,5.3C1049.9,647.4,1052.7,638.4,1055.7,629.5z"
					/>
				<path class="st2" d="M1060.6,343.9c1.1,0,2.2,0,3.3,0c86.7,0,173.3,5.4,173.3,5.4s-63.1,21.6-86.6,21.6h-84.9
					C1063.6,362.1,1061.9,353,1060.6,343.9z"/>
				<path class="st2" d="M1055.7,371h-79.1c-13.5,0-86-21.6-86-21.6s76.1-4.8,157.1-5.3C1049.9,353.1,1052.7,362.1,1055.7,371z"/>
				<path class="st2" d="M953.1,619.6L827.7,652c0,0-47.8-34.3-47.8-151.8s47.8-151.8,47.8-151.8l125.4,32.5
					c0,0-15.3,65.5-15.3,119.3S953.1,619.6,953.1,619.6z M1230.7,391.1c4.5,19.7,13.8,69.9,13.8,109.1s-9.2,89.5-13.8,109.1
					c-1.2,5.3,2.7,10.3,8.1,10.5l114.4,4c3.1,0.1,6.1-1.5,7.7-4.2c27.2-45.9,23.4-119.4,23.4-119.4s3.8-73.6-23.4-119.4
					c-1.6-2.7-4.6-4.3-7.7-4.2l-114.4,4C1233.4,380.7,1229.5,385.8,1230.7,391.1z"/>
				<path class="st3" d="M639.8,652c-6.7-26.9-37.3-44.3-45.3-43.2c4.3,7.8,9.5,14.9,15.9,21.3C618.7,638.5,628.7,645.8,639.8,652z"
					/>
				<path class="st3" d="M639.8,348.5c-6.7,26.9-37.3,44.3-45.3,43.2c4.3-7.8,9.5-14.9,15.9-21.3
					C618.7,361.9,628.7,354.6,639.8,348.5z"/>
			</g>
			<g>
				<path class="st4" d="M1416.7,608.9c-3.5,10-9.6,19.2-17.9,26.8c-2.1,2-4.5,3.9-5.8,6.3c-0.9,1.7-1.2,3.7-0.7,5.5
					c16.6-10.6,28.1-26.8,30.9-45.4c-0.1,0-0.1,0-0.2,0C1419.5,602.2,1417.8,605.9,1416.7,608.9z"/>
				<path class="st4" d="M1416.7,391.6c-3.5-10-9.6-19.2-17.9-26.8c-2.1-2-4.5-3.9-5.8-6.3c-0.9-1.7-1.2-3.7-0.7-5.5
					c16.6,10.6,28.1,26.8,30.9,45.4c-0.1,0-0.1,0-0.2,0C1419.5,398.3,1417.8,394.6,1416.7,391.6z"/>
			</g>
			<path class="st2" d="M582.4,546.5v-92.6c0-11.2-1.4-22.1-3.9-32.5c-8,11.8-12.3,25.7-12.3,40V539c0,14.3,4.3,28.2,12.3,40
				C581,568.6,582.4,557.7,582.4,546.5z"/>
		</g>
	</g>
</g>
</svg>
